<svg width="141" height="142" viewBox="0 0 141 142" fill="none" xmlns="http://www.w3.org/2000/svg">
<path opacity="0.467" fill-rule="evenodd" clip-rule="evenodd" d="M126.188 102.299C126.188 108.107 120.278 113.677 109.758 117.784C99.2385 121.891 84.9708 124.199 70.0938 124.199C55.2168 124.199 40.9491 121.891 30.4295 117.784C19.9099 113.677 14 108.107 14 102.299C14 96.4904 19.9099 90.9201 30.4295 86.8131C40.9491 82.706 55.2168 80.3987 70.0938 80.3987C84.9708 80.3987 99.2385 82.706 109.758 86.8131C120.278 90.9201 126.188 96.4904 126.188 102.299Z" fill="url(#paint0_radial_53_2)"/>
<path fill-rule="evenodd" clip-rule="evenodd" d="M117.667 65.1557C117.667 77.9274 112.627 90.176 103.656 99.207C94.6854 108.238 82.5184 113.311 69.8319 113.311C57.1453 113.311 44.9784 108.238 36.0077 99.207C27.0369 90.176 21.9972 77.9274 21.9972 65.1557C21.9972 52.384 27.0369 40.1354 36.0077 31.1045C44.9784 22.0735 57.1453 17 69.8319 17C82.5184 17 94.6854 22.0735 103.656 31.1045C112.627 40.1354 117.667 52.384 117.667 65.1557Z" fill="url(#paint1_radial_53_2)"/>
<path fill-rule="evenodd" clip-rule="evenodd" d="M93.579 65.1558C93.579 71.4961 91.0771 77.5769 86.6236 82.0602C82.1702 86.5435 76.13 89.0622 69.8319 89.0622C63.5338 89.0622 57.4936 86.5435 53.0401 82.0602C48.5867 77.5769 46.0848 71.4961 46.0848 65.1558C46.0848 58.8154 48.5867 52.7347 53.0401 48.2513C57.4936 43.768 63.5338 41.2493 69.8319 41.2493C76.13 41.2493 82.1702 43.768 86.6236 48.2513C91.0771 52.7347 93.579 58.8154 93.579 65.1558Z" fill="#3F7F00"/>
<path fill-rule="evenodd" clip-rule="evenodd" d="M117.78 65.1821C117.78 77.9538 112.74 90.2024 103.77 99.2334C94.7989 108.264 82.632 113.338 69.9454 113.338C57.2589 113.338 45.0919 108.264 36.1212 99.2334C27.1504 90.2024 22.1107 77.9538 22.1107 65.1821C22.1107 52.4104 27.1504 40.1618 36.1212 31.1309C45.0919 22.0999 57.2589 17.0264 69.9454 17.0264C82.632 17.0264 94.7989 22.0999 103.77 31.1309C112.74 40.1618 117.78 52.4104 117.78 65.1821Z" fill="url(#paint2_radial_53_2)"/>
<path fill-rule="evenodd" clip-rule="evenodd" d="M66.9377 41.4325C66.8454 41.4439 66.753 41.4556 66.661 41.468C66.7769 42.0087 66.8929 42.551 67.0055 43.085C66.9816 42.5396 66.9603 41.9853 66.9377 41.4325V41.4325ZM67.0056 43.085C67.3509 50.9354 67.8647 57.9312 69.2059 60.4563C69.8751 57.6735 68.6276 50.772 67.0056 43.085ZM69.2059 60.4563C69.0464 61.1197 68.7909 61.5778 68.3947 61.7318C67.9979 61.886 67.5025 61.7177 66.9405 61.333C67.1065 61.9968 67.0932 62.5239 66.813 62.8462C66.5332 63.168 66.0165 63.2511 65.3424 63.1739C65.7947 63.6833 66.025 64.1564 65.9258 64.5724C65.8264 64.9889 65.4069 65.303 64.7727 65.5502C65.4095 65.7897 65.8323 66.0991 65.9366 66.5143C66.0408 66.929 65.8157 67.4035 65.3696 67.9182C66.044 67.8324 66.5589 67.9108 66.8428 68.2296C67.1265 68.5481 67.1468 69.0727 66.9893 69.7373C67.5463 69.3465 68.0398 69.1728 68.4381 69.3222C68.8369 69.4717 69.0983 69.9285 69.2656 70.5922C69.5786 69.9847 69.9343 69.6003 70.3563 69.5461C70.778 69.492 71.2181 69.7752 71.6721 70.2836C71.6688 69.5994 71.8092 69.0923 72.1578 68.8469C72.506 68.6019 73.0247 68.6451 73.6608 68.8824C73.3427 68.2788 73.2322 67.7629 73.4275 67.3829C73.6229 67.0025 74.1044 66.7983 74.7786 66.711C74.2172 66.325 73.8804 65.9238 73.8778 65.4955C73.8753 65.0671 74.2078 64.6593 74.7651 64.2664C74.0899 64.1873 73.6057 63.9889 73.4058 63.6109C73.2059 63.2329 73.3112 62.7169 73.6228 62.1087C72.9881 62.3547 72.4687 62.4045 72.117 62.1633C71.7656 61.9222 71.6199 61.4191 71.6151 60.7348C71.1674 61.2481 70.7295 61.5349 70.3074 61.4859C69.8855 61.4369 69.5257 61.0583 69.2059 60.4562L69.2059 60.4563ZM71.6152 60.7349C73.4918 58.5836 75.5729 51.893 77.6846 44.3304C74.3687 51.4386 71.5951 57.871 71.6152 60.7349ZM77.6846 44.3304C77.9125 43.842 78.1467 43.3468 78.3792 42.8528C78.2928 42.8192 78.2084 42.7816 78.1214 42.749C77.9756 43.2779 77.8303 43.8089 77.6846 44.3304L77.6846 44.3304ZM73.6231 62.1086C76.2795 61.0789 81.2143 56.1276 86.5757 50.4186C80.3552 55.1635 74.9283 59.5624 73.6231 62.1086ZM86.5757 50.4186C86.9707 50.1173 87.3741 49.8129 87.7749 49.5091C87.7192 49.4444 87.6631 49.3793 87.6067 49.3152C87.2623 49.6842 86.917 50.0552 86.5757 50.4186L86.5757 50.4186ZM74.7655 64.2664C77.5923 64.5978 84.2451 62.5224 91.6277 59.9754C83.9313 61.2663 77.097 62.6226 74.7655 64.2663V64.2664ZM91.6277 59.9755C92.069 59.9015 92.5187 59.8279 92.9652 59.7542C92.9478 59.6785 92.9291 59.603 92.911 59.5275C92.4825 59.6767 92.0518 59.8292 91.6277 59.9755ZM74.779 66.711C77.1288 68.3266 83.9771 69.6016 91.687 70.7998C84.277 68.3425 77.6012 66.3459 74.779 66.711ZM91.687 70.7998C92.0606 70.9237 92.4414 71.0507 92.8184 71.1768C92.8353 71.1114 92.851 71.0456 92.8673 70.9801C92.4738 70.92 92.0765 70.8604 91.6871 70.7998H91.687ZM73.6611 68.8824C74.9943 71.4122 80.4731 75.7446 86.749 80.4142C81.32 74.7694 76.3283 69.8778 73.6611 68.8824ZM86.749 80.4142C86.9852 80.6598 87.2249 80.9117 87.4626 81.1599C87.5016 81.1164 87.5405 81.0726 87.5793 81.0288C87.3029 80.8241 87.0226 80.6178 86.749 80.4143L86.749 80.4142ZM71.6723 70.2839C71.6861 73.1486 74.5359 79.5472 77.9369 86.6172C75.7359 79.08 73.5744 72.4135 71.6723 70.2839ZM77.9369 86.6172C78.0247 86.918 78.1121 87.226 78.2 87.5294C78.2503 87.5104 78.2992 87.4888 78.3493 87.4694C78.2121 87.1857 78.0723 86.8988 77.9369 86.6172V86.6172ZM69.2657 70.5924C67.9559 73.1349 67.5238 80.1312 67.2715 87.9799C68.8011 80.2802 69.9656 73.3689 69.2657 70.5924ZM67.2715 87.9799C67.2113 88.283 67.1483 88.5923 67.0871 88.8977C67.1396 88.9038 67.1917 88.911 67.2444 88.9168C67.2538 88.605 67.2616 88.2892 67.2715 87.9799V87.9799ZM66.9894 69.7372C64.6551 71.3749 61.0439 77.3745 57.195 84.2107C62.1077 78.104 66.3293 72.5233 66.9894 69.7372ZM57.195 84.2107C56.9891 84.4667 56.7765 84.7259 56.5683 84.9837C56.6155 85.0158 56.6646 85.0448 56.7121 85.0765C56.8734 84.7886 57.0345 84.4958 57.195 84.2107H57.195ZM65.3694 67.9183C62.5466 68.2774 56.5812 71.8951 50.0211 76.1449C57.1867 73.0372 63.4993 70.0751 65.3694 67.9183ZM50.0211 76.1449C49.6784 76.2935 49.3283 76.4436 48.982 76.5928C49.0125 76.649 49.046 76.7035 49.077 76.7595C49.3915 76.5546 49.7091 76.3471 50.0211 76.1449H50.0211ZM64.7722 65.55C62.1067 64.5475 55.1551 64.9597 47.384 65.6538C55.1625 66.2545 62.1186 66.5843 64.7722 65.55ZM47.384 65.6538C46.9594 65.621 46.5271 65.5843 46.098 65.55C46.0992 65.6238 46.1016 65.6977 46.1035 65.7713C46.5308 65.732 46.9612 65.6916 47.3841 65.6538H47.384ZM65.3423 63.1738C63.4477 61.0398 57.1042 58.1561 49.9045 55.1357C56.5136 59.3058 62.5176 62.8508 65.3423 63.1738ZM49.9045 55.1357C49.4926 54.8758 49.0754 54.6079 48.6592 54.3436C48.6212 54.4188 48.5798 54.492 48.5426 54.5676C48.9978 54.757 49.4553 54.9472 49.9045 55.1357L49.9045 55.1357ZM66.9405 61.3329C66.2459 58.5553 61.9588 53.0311 56.978 46.9881C60.9057 53.7738 64.5876 59.7227 66.9405 61.3329ZM56.978 46.9881C56.7138 46.5317 56.4465 46.0666 56.1804 45.6034C56.1067 45.6556 56.0337 45.7087 55.9606 45.7618C56.3009 46.1719 56.6434 46.5822 56.9781 46.9881H56.978Z" fill="url(#paint3_radial_53_2)"/>
<path opacity="0.36" fill-rule="evenodd" clip-rule="evenodd" d="M73.132 41.5657C73.0399 41.5526 72.9477 41.5399 72.8556 41.5279C72.8286 42.0803 72.8012 42.6344 72.7727 43.1795C72.8898 42.6464 73.0117 42.1055 73.132 41.5657V41.5657ZM72.7727 43.1795C71.088 50.8524 69.7857 57.7436 70.4321 60.5324C71.7939 58.0187 72.3633 51.0274 72.7727 43.1795ZM70.4321 60.5324C70.1074 61.1316 69.7428 61.5076 69.3206 61.5531C68.8976 61.5986 68.4624 61.307 68.0184 60.789C68.0081 61.4734 67.8597 61.9791 67.5062 62.2173C67.1532 62.4553 66.6327 62.4009 66.0015 62.1508C66.3074 62.7606 66.4082 63.2776 66.2055 63.6536C66.0024 64.03 65.5165 64.2241 64.8403 64.2976C65.3938 64.6949 65.7227 65.104 65.7166 65.5322C65.7106 65.9599 65.3713 66.3596 64.808 66.7405C65.4815 66.8334 65.9586 67.0432 66.1509 67.4252C66.3431 67.8068 66.2279 68.3187 65.9048 68.9197C66.5433 68.6873 67.0647 68.6481 67.411 68.8961C67.7577 69.1445 67.8928 69.6539 67.8838 70.3385C68.3422 69.8332 68.7847 69.5546 69.2062 69.6123C69.6275 69.6699 69.9798 70.0581 70.2876 70.6675C70.4604 70.0057 70.7263 69.5524 71.1261 69.4063C71.5254 69.2603 72.0154 69.4372 72.5688 69.8322C72.4167 69.1662 72.4427 68.6392 72.729 68.323C73.0155 68.0065 73.5331 67.9346 74.2068 68.026C73.7637 67.5069 73.5416 67.0316 73.6492 66.6173C73.7569 66.2028 74.1829 65.8955 74.8222 65.6613C74.1903 65.4089 73.7737 65.0911 73.6777 64.6739C73.5818 64.2567 73.8162 63.7857 74.2736 63.2795C73.5972 63.3517 73.0827 63.2645 72.8051 62.9399C72.5275 62.6154 72.5162 62.0915 72.6875 61.4293C72.123 61.8084 71.6263 61.9714 71.2312 61.8141C70.8362 61.6568 70.5861 61.1973 70.4319 60.5325L70.4321 60.5324ZM72.6876 61.4292C75.0534 59.8401 78.7837 53.9198 82.7675 47.1653C77.7369 53.1674 73.4044 58.6576 72.6876 61.4292ZM82.7675 47.1653C83.1131 46.7529 83.4667 46.3357 83.8183 45.919C83.7434 45.864 83.6716 45.8057 83.596 45.7516C83.3191 46.2245 83.0422 46.6995 82.7675 47.1653L82.7675 47.1653ZM74.2735 63.2793C77.1041 62.9769 83.1438 59.4801 89.7899 55.3625C82.5614 58.3249 76.1886 61.1598 74.2735 63.2793ZM89.7899 55.3625C90.2489 55.1744 90.7168 54.9855 91.1821 54.7964C91.1449 54.7194 91.1075 54.6419 91.0694 54.5653C90.6419 54.832 90.213 55.1004 89.7899 55.3625L89.7899 55.3625ZM74.8218 65.6612C77.4671 66.7179 84.4272 66.4466 92.2126 65.91C84.4464 65.1515 77.4964 64.6809 74.8218 65.6612ZM92.2126 65.91C92.658 65.9535 93.1113 65.9995 93.5615 66.0448C93.5642 65.9671 93.5655 65.8893 93.5674 65.8117C93.1151 65.8441 92.6599 65.8791 92.2126 65.91H92.2126ZM74.2067 68.026C76.0611 70.1987 82.3484 73.2146 89.4874 76.3809C82.9617 72.0766 77.0263 68.4083 74.2067 68.026ZM89.4874 76.3809C89.8164 76.5979 90.1515 76.8198 90.4833 77.0398C90.5164 76.9811 90.5484 76.9216 90.581 76.8626C90.2164 76.7019 89.8479 76.5408 89.4874 76.3809L89.4874 76.3809ZM72.5684 69.8321C73.2059 72.6231 77.3842 78.2354 82.2458 84.3812C78.4531 77.5143 74.889 71.4884 72.5684 69.8321ZM82.2458 84.3812C82.4108 84.6799 82.5776 84.9857 82.7433 85.2874C82.7922 85.2555 82.8411 85.2234 82.8897 85.1912C82.6754 84.9214 82.4577 84.6491 82.2458 84.3812L82.2458 84.3812ZM70.2872 70.6675C69.564 73.4382 70.6716 80.3615 72.1391 88.0766C71.9508 80.2231 71.5769 73.2203 70.2872 70.6675ZM72.1391 88.0766C72.1466 88.3901 72.1518 88.7103 72.1588 89.0264C72.2122 89.0211 72.265 89.0129 72.3183 89.0072C72.2588 88.6975 72.1975 88.384 72.1391 88.0766V88.0766ZM67.8832 70.3384C65.9644 72.453 63.7483 79.0985 61.4868 86.6141C64.9438 79.5753 67.8453 73.2028 67.8832 70.3384ZM61.4868 86.6141C61.3508 86.8911 61.2104 87.1735 61.0727 87.4525C61.1219 87.4721 61.1703 87.4927 61.2197 87.512C61.309 87.2133 61.3977 86.9102 61.4868 86.6141V86.6141ZM65.9045 68.9198C63.2287 69.8935 58.198 74.7475 52.7226 80.3479C59.0379 75.7292 64.5503 71.4388 65.9045 68.9198ZM52.7226 80.3479C52.4579 80.5415 52.186 80.7365 51.9186 80.9312C51.9559 80.9745 51.9959 81.0154 52.0336 81.0584C52.2634 80.8223 52.4943 80.5815 52.7227 80.3479L52.7226 80.3479ZM64.8075 66.7405C61.9885 66.352 55.2964 68.2921 47.8671 70.6879C55.5876 69.5532 62.4467 68.337 64.8075 66.7405ZM47.8671 70.688C47.4979 70.7422 47.1212 70.796 46.7482 70.8499C46.7633 70.9121 46.7816 70.9735 46.7971 71.0356C47.1536 70.9197 47.5137 70.8019 47.8671 70.688H47.8671ZM64.8398 64.2978C62.5228 62.6349 55.7024 61.2218 48.0173 59.8672C55.3763 62.4742 62.0106 64.605 64.8398 64.2978ZM48.0173 59.8672C47.6156 59.7249 47.2075 59.5768 46.8018 59.4319C46.784 59.5035 46.7673 59.5754 46.7501 59.647C47.173 59.7204 47.5991 59.7935 48.0173 59.8672H48.0173ZM66.0014 62.1508C64.7199 59.5958 59.3338 55.1572 53.1561 50.3641C58.4678 56.1139 63.356 61.1027 66.0014 62.1508ZM53.1561 50.3641C52.825 50.0057 52.4909 49.6383 52.1569 49.2745C52.1009 49.3372 52.042 49.3971 51.9866 49.4604C52.3777 49.762 52.7707 50.065 53.1561 50.364L53.1561 50.3641ZM68.0181 60.7889C68.0613 57.9249 65.3406 51.4719 62.0831 44.3369C64.1323 51.9149 66.1596 58.6202 68.0181 60.7889ZM62.0831 44.3369C61.9453 43.8272 61.8067 43.3083 61.6687 42.7915C61.584 42.8228 61.4999 42.855 61.4156 42.8872C61.6388 43.372 61.8643 43.8576 62.0831 44.3369L62.0831 44.3369Z" fill="url(#paint4_radial_53_2)"/>
<path fill-rule="evenodd" clip-rule="evenodd" d="M79.1501 65.1569C79.1501 67.6442 78.1686 70.0296 76.4216 71.7884C74.6745 73.5472 72.305 74.5353 69.8343 74.5353C67.3635 74.5353 64.994 73.5472 63.2469 71.7884C61.4999 70.0296 60.5184 67.6442 60.5184 65.1569C60.5184 62.6696 61.4999 60.2841 63.2469 58.5253C64.994 56.7666 67.3635 55.7785 69.8343 55.7785C72.305 55.7785 74.6745 56.7666 76.4216 58.5253C78.1686 60.2841 79.1501 62.6696 79.1501 65.1569Z" fill="black"/>
<path opacity="0.766" fill-rule="evenodd" clip-rule="evenodd" d="M75.3291 60.7717C75.3329 61.1994 75.1935 61.6234 74.9191 62.0191C74.6447 62.4149 74.2406 62.7748 73.7301 63.078C73.2195 63.3812 72.6126 63.6219 71.9442 63.7861C71.2758 63.9502 70.5591 64.0348 69.8352 64.0348C69.1113 64.0348 68.3946 63.9502 67.7262 63.7861C67.0578 63.6219 66.4508 63.3812 65.9403 63.078C65.4298 62.7748 65.0257 62.4149 64.7513 62.0191C64.4769 61.6234 64.3375 61.1994 64.3413 60.7717C64.3375 60.344 64.4769 59.9201 64.7513 59.5243C65.0257 59.1285 65.4298 58.7686 65.9403 58.4654C66.4508 58.1622 67.0578 57.9215 67.7262 57.7574C68.3946 57.5932 69.1113 57.5086 69.8352 57.5086C70.5591 57.5086 71.2758 57.5932 71.9442 57.7574C72.6126 57.9215 73.2195 58.1622 73.7301 58.4654C74.2406 58.7686 74.6447 59.1285 74.9191 59.5243C75.1935 59.9201 75.3329 60.344 75.3291 60.7717Z" fill="url(#paint5_linear_53_2)"/>
<path fill-rule="evenodd" clip-rule="evenodd" d="M85.3636 54.2616C85.3636 55.676 84.9702 57.0766 84.2058 58.3834C83.4415 59.6902 82.3212 60.8776 80.9089 61.8777C79.4966 62.8779 77.8199 63.6713 75.9746 64.2125C74.1294 64.7538 72.1516 65.0324 70.1543 65.0324C68.157 65.0324 66.1792 64.7538 64.334 64.2125C62.4887 63.6713 60.812 62.8779 59.3997 61.8777C57.9874 60.8776 56.8671 59.6902 56.1027 58.3834C55.3384 57.0766 54.945 55.676 54.945 54.2616C54.945 52.8472 55.3384 51.4466 56.1027 50.1398C56.8671 48.833 57.9874 47.6456 59.3997 46.6455C60.812 45.6453 62.4887 44.8519 64.334 44.3107C66.1792 43.7694 68.157 43.4908 70.1543 43.4908C72.1516 43.4908 74.1294 43.7694 75.9746 44.3107C77.8199 44.8519 79.4966 45.6453 80.9089 46.6455C82.3212 47.6456 83.4415 48.833 84.2058 50.1398C84.9702 51.4466 85.3636 52.8472 85.3636 54.2616Z" fill="url(#paint6_linear_53_2)"/>
<path opacity="0.523" fill-rule="evenodd" clip-rule="evenodd" d="M56.2035 62.1806C56.2035 63.2168 55.7947 64.2106 55.0668 64.9433C54.339 65.676 53.3519 66.0876 52.3226 66.0876C51.2933 66.0876 50.3062 65.676 49.5784 64.9433C48.8505 64.2106 48.4417 63.2168 48.4417 62.1806C48.4417 61.1444 48.8505 60.1507 49.5784 59.418C50.3062 58.6853 51.2933 58.2736 52.3226 58.2736C53.3519 58.2736 54.339 58.6853 55.0668 59.418C55.7947 60.1507 56.2035 61.1444 56.2035 62.1806Z" fill="url(#paint7_linear_53_2)"/>
<path opacity="0.9" fill-rule="evenodd" clip-rule="evenodd" d="M106.95 47.7401C104.878 49.8238 102.128 51.647 98.8579 53.1056C95.5879 54.5642 91.8615 55.6297 87.8915 56.2411C83.9215 56.8525 79.7857 56.998 75.7202 56.6691C71.6546 56.3403 67.739 55.5436 64.1968 54.3246C60.6547 53.1055 57.5554 51.488 55.0759 49.5643C52.5964 47.6407 50.7852 45.4485 49.7459 43.1131C48.7065 40.7777 48.4593 38.3447 49.0183 35.9531C49.5773 33.5615 50.9315 31.258 53.0038 29.1743C55.0761 27.0906 57.8257 25.2673 61.0958 23.8087C64.3658 22.3501 68.0922 21.2847 72.0622 20.6733C76.0322 20.0618 80.168 19.9164 84.2336 20.2452C88.2991 20.5741 92.2147 21.3708 95.7569 22.5898C99.299 23.8088 102.398 25.4264 104.878 27.35C107.357 29.2737 109.168 31.4658 110.208 33.8012C111.247 36.1367 111.494 38.5696 110.935 40.9613C110.376 43.3529 109.022 45.6563 106.95 47.7401Z" fill="url(#paint8_linear_53_2)"/>
<path opacity="0.9" fill-rule="evenodd" clip-rule="evenodd" d="M42.6603 47.7357C42.6015 49.9894 42.3851 52.1885 42.0234 54.2076C41.6617 56.2267 41.1618 58.0262 40.5522 59.5033C39.9426 60.9804 39.2353 62.1062 38.4706 62.8164C37.7059 63.5266 36.8988 63.8073 36.0955 63.6425C35.2921 63.4778 34.5082 62.8707 33.7885 61.856C33.0687 60.8413 32.4273 59.4388 31.9008 57.7287C31.3742 56.0186 30.9729 54.0343 30.7198 51.8891C30.4666 49.7438 30.3665 47.4797 30.4253 45.226C30.484 42.9723 30.7004 40.7732 31.0621 38.7541C31.4238 36.735 31.9237 34.9355 32.5333 33.4584C33.1429 31.9813 33.8503 30.8555 34.6149 30.1453C35.3796 29.4351 36.1867 29.1544 36.9901 29.3192C37.7934 29.4839 38.5773 30.091 39.2971 31.1057C40.0168 32.1204 40.6583 33.5229 41.1848 35.233C41.7113 36.9431 42.1126 38.9274 42.3658 41.0726C42.6189 43.2179 42.719 45.4819 42.6603 47.7357Z" fill="url(#paint9_linear_53_2)"/>
<defs>
<radialGradient id="paint0_radial_53_2" cx="0" cy="0" r="1" gradientUnits="userSpaceOnUse" gradientTransform="translate(70.0935 102.302) scale(56.0951 21.8998)">
<stop/>
<stop offset="1" stop-opacity="0"/>
</radialGradient>
<radialGradient id="paint1_radial_53_2" cx="0" cy="0" r="1" gradientUnits="userSpaceOnUse" gradientTransform="translate(69.1052 62.2383) scale(22.1735 22.3223)">
<stop stop-color="#F8F8F8"/>
<stop offset="1" stop-color="#DBDBDB"/>
</radialGradient>
<radialGradient id="paint2_radial_53_2" cx="0" cy="0" r="1" gradientUnits="userSpaceOnUse" gradientTransform="translate(74.0429 81.6245) scale(46.9756 47.2909)">
<stop stop-color="white" stop-opacity="0"/>
<stop offset="1" stop-opacity="0.173"/>
</radialGradient>
<radialGradient id="paint3_radial_53_2" cx="0" cy="0" r="1" gradientUnits="userSpaceOnUse" gradientTransform="translate(69.5311 65.1758) scale(23.4329 23.7424)">
<stop stop-color="#5DA8FF"/>
<stop offset="1" stop-color="#5DA8FF" stop-opacity="0"/>
</radialGradient>
<radialGradient id="paint4_radial_53_2" cx="0" cy="0" r="1" gradientUnits="userSpaceOnUse" gradientTransform="translate(69.5315 65.1756) rotate(15.0957) scale(23.444 23.7316)">
<stop stop-color="#5DA8FF"/>
<stop offset="1" stop-color="#5DA8FF" stop-opacity="0"/>
</radialGradient>
<linearGradient id="paint5_linear_53_2" x1="69.7866" y1="57.659" x2="69.8038" y2="64.1314" gradientUnits="userSpaceOnUse">
<stop stop-color="white"/>
<stop offset="1" stop-color="white" stop-opacity="0"/>
</linearGradient>
<linearGradient id="paint6_linear_53_2" x1="69.6688" y1="40.5529" x2="69.4253" y2="57.5288" gradientUnits="userSpaceOnUse">
<stop stop-color="white"/>
<stop offset="1" stop-color="white" stop-opacity="0"/>
</linearGradient>
<linearGradient id="paint7_linear_53_2" x1="52.793" y1="58.5103" x2="52.7334" y2="64.3116" gradientUnits="userSpaceOnUse">
<stop stop-color="white"/>
<stop offset="1" stop-color="white" stop-opacity="0"/>
</linearGradient>
<linearGradient id="paint8_linear_53_2" x1="70.5175" y1="24.2859" x2="72.7415" y2="42.0045" gradientUnits="userSpaceOnUse">
<stop stop-color="white"/>
<stop offset="1" stop-color="white" stop-opacity="0"/>
</linearGradient>
<linearGradient id="paint9_linear_53_2" x1="35.2284" y1="32.4016" x2="46.5432" y2="41.1949" gradientUnits="userSpaceOnUse">
<stop stop-color="white"/>
<stop offset="1" stop-color="white" stop-opacity="0"/>
</linearGradient>
</defs>
</svg>
