<svg width="30" height="30" viewBox="0 0 30 30" fill="none" xmlns="http://www.w3.org/2000/svg">
<path d="M23.2931 8.20312C23.2931 12.4123 19.5118 15.9062 14.7414 15.9062C9.97092 15.9062 6.18964 12.4123 6.18964 8.20312C6.18964 3.99398 9.97092 0.5 14.7414 0.5C19.5118 0.5 23.2931 3.99398 23.2931 8.20312Z" stroke="#386FFC"/>
<mask id="path-2-inside-1_53_30" fill="white">
<path fill-rule="evenodd" clip-rule="evenodd" d="M30 30C30 22.4924 23.2843 16.4062 15 16.4062C6.71573 16.4062 0 22.4924 0 30H30Z"/>
</mask>
<path d="M30 30V31H31V30H30ZM0 30H-1V31H0V30ZM15 17.4062C22.8269 17.4062 29 23.135 29 30H31C31 21.8497 23.7417 15.4062 15 15.4062V17.4062ZM1 30C1 23.135 7.17311 17.4062 15 17.4062V15.4062C6.25834 15.4062 -1 21.8497 -1 30H1ZM0 31H30V29H0V31Z" fill="#386FFC" mask="url(#path-2-inside-1_53_30)"/>
</svg>
