<svg width="74" height="74" viewBox="0 0 74 74" fill="none" xmlns="http://www.w3.org/2000/svg">
<rect width="74" height="74" rx="10" fill="#F4AA47"/>
<path d="M50.1783 44.2265C46.665 40.7442 42.0763 38.6364 37.0501 38.6364C32.0238 38.6364 27.4352 40.7442 23.9156 44.2336C23.8184 44.3335 23.7589 44.4723 23.7495 44.621C23.7402 44.7696 23.7818 44.9167 23.8655 45.0312L26.1161 48.0862C26.2974 48.3283 26.6162 48.3568 26.8288 48.1503C29.5545 45.4158 33.1304 43.7636 37.0501 43.7636C40.9698 43.7636 44.5457 45.4158 47.2714 48.1432C47.4839 48.3497 47.8028 48.3212 47.9841 48.0791L50.2346 45.0241C50.4097 44.7891 50.3846 44.433 50.1783 44.2265ZM57.5177 34.2497C51.9725 28.9871 44.8395 25.8182 37.0501 25.8182C29.2606 25.8182 22.1276 28.9871 16.5762 34.2497C16.4747 34.3473 16.4111 34.4866 16.3994 34.6374C16.3877 34.7881 16.4288 34.938 16.5137 35.0544L18.7643 38.1094C18.9393 38.3515 19.2581 38.38 19.4644 38.1806C24.2344 33.6658 30.3672 30.9455 37.0501 30.9455C43.733 30.9455 49.8658 33.6658 54.6295 38.1806C54.842 38.38 55.1546 38.3515 55.3296 38.1094L57.5802 35.0544C57.7552 34.8123 57.7302 34.4491 57.5177 34.2497ZM64.8132 24.3512C57.2239 17.2585 47.5089 13 36.925 13C26.4099 13 16.7575 17.2015 9.18689 24.2088C9.13488 24.2564 9.09175 24.3154 9.06005 24.3822C9.02835 24.4491 9.00872 24.5225 9.00231 24.5982C8.9959 24.6738 9.00285 24.7502 9.02274 24.8227C9.04263 24.8953 9.07506 24.9626 9.11812 25.0206L11.3687 28.0756C11.5437 28.3106 11.8563 28.3462 12.0626 28.1539C18.858 21.8802 27.504 18.1273 36.925 18.1273C46.4149 18.1273 55.1171 21.9371 61.9313 28.2892C62.1438 28.4886 62.4564 28.453 62.6315 28.2109L64.882 25.1559C65.0633 24.9138 65.032 24.5506 64.8132 24.3512ZM32.9866 55.4424C32.9866 56.6512 33.4081 57.8104 34.1584 58.6651C34.9088 59.5198 35.9264 60 36.9876 60C38.0487 60 39.0664 59.5198 39.8167 58.6651C40.567 57.8104 40.9886 56.6512 40.9886 55.4424C40.9886 54.2337 40.567 53.0744 39.8167 52.2197C39.0664 51.365 38.0487 50.8848 36.9876 50.8848C35.9264 50.8848 34.9088 51.365 34.1584 52.2197C33.4081 53.0744 32.9866 54.2337 32.9866 55.4424Z" fill="white"/>
</svg>
